<svg xmlns="http://www.w3.org/2000/svg" width="741" height="217" fill="none" viewBox="0 0 741 217"><path fill="#fff" d="M1.5 48.72c0-6.16.88-11.77 2.64-16.83 1.833-5.06 4.363-9.387 7.59-12.98a33.921 33.921 0 0111.44-8.36c4.473-1.98 9.387-2.97 14.74-2.97 5.427 0 10.377.917 14.85 2.75 4.473 1.76 8.287 4.363 11.44 7.81 3.227 3.373 5.683 7.517 7.37 12.43 1.76 4.913 2.64 10.523 2.64 16.83 0 6.16-.917 11.77-2.75 16.83-1.76 5.06-4.253 9.387-7.48 12.98-3.227 3.593-7.077 6.38-11.55 8.36-4.4 1.98-9.277 2.97-14.63 2.97-5.427 0-10.377-.88-14.85-2.64-4.473-1.833-8.323-4.437-11.55-7.81-3.153-3.447-5.61-7.627-7.37-12.54C2.343 60.637 1.5 55.027 1.5 48.72zm13.64-.44c0 5.867.587 11.183 1.76 15.95 1.247 4.693 2.897 8.69 4.95 11.99 2.127 3.3 4.583 5.867 7.37 7.7 2.787 1.76 5.793 2.64 9.02 2.64 3.373 0 6.453-.953 9.24-2.86s5.133-4.547 7.04-7.92c1.907-3.447 3.373-7.517 4.4-12.21 1.1-4.767 1.65-10.01 1.65-15.73 0-5.867-.623-11.147-1.87-15.84-1.173-4.767-2.823-8.8-4.95-12.1-2.053-3.3-4.473-5.83-7.26-7.59-2.787-1.833-5.793-2.75-9.02-2.75-3.373 0-6.453.953-9.24 2.86-2.713 1.907-5.06 4.583-7.04 8.03-1.907 3.373-3.41 7.443-4.51 12.21-1.027 4.693-1.54 9.9-1.54 15.62zm111.622 28.16c-1.834 4.4-4.364 7.517-7.59 9.35-3.227 1.833-6.674 2.75-10.34 2.75-2.787 0-5.134-.403-7.04-1.21-1.834-.733-3.374-1.723-4.62-2.97-1.32-1.467-2.237-3.337-2.75-5.61-.514-2.347-.77-5.28-.77-8.8V42.23c0-3.3-.55-5.72-1.65-7.26-1.1-1.613-3.19-2.42-6.27-2.42v-2.31c2.273.22 4.546.33 6.82.33 2.566 0 4.913-.11 7.04-.33 2.2-.22 4.253-.623 6.16-1.21v44.11c0 1.613.073 3.117.22 4.51.146 1.393.476 2.603.99 3.63.513 1.027 1.283 1.833 2.31 2.42 1.026.587 2.42.88 4.18.88 1.906 0 3.666-.44 5.28-1.32 1.613-.88 3.006-2.09 4.18-3.63 1.246-1.613 2.2-3.447 2.86-5.5.66-2.127.99-4.4.99-6.82V42.23c0-3.3-.55-5.72-1.65-7.26-1.1-1.613-3.19-2.42-6.27-2.42v-2.31c2.273.22 4.546.33 6.82.33 2.566 0 4.913-.11 7.04-.33 2.2-.22 4.253-.623 6.16-1.21v46.09c0 3.3.55 5.757 1.65 7.37 1.1 1.54 3.153 2.31 6.16 2.31v2.31c-2.347-.22-4.62-.33-6.82-.33-2.494 0-4.84.11-7.04.33-2.127.22-4.144.623-6.05 1.21V76.44zm65.545-43.78c-.733-.66-1.613-.917-2.64-.77-1.98.073-3.813.733-5.5 1.98-1.613 1.247-3.007 2.787-4.18 4.62a22.437 22.437 0 00-2.75 5.83c-.587 2.127-.88 4.107-.88 5.94v25.41c0 3.593.953 6.013 2.86 7.26 1.907 1.173 4.657 1.76 8.25 1.76V87a386.974 386.974 0 00-7.26-.22c-3.08-.147-6.343-.22-9.79-.22-2.713 0-5.39.073-8.03.22-2.64.073-4.657.147-6.05.22v-2.31c2.86 0 4.877-.55 6.05-1.65 1.247-1.1 1.87-3.19 1.87-6.27V42.23c0-3.3-.55-5.72-1.65-7.26-1.1-1.613-3.19-2.42-6.27-2.42v-2.31c2.273.22 4.547.33 6.82.33 2.567 0 4.913-.11 7.04-.33 2.2-.22 4.253-.623 6.16-1.21v12.43c.587-1.54 1.393-3.043 2.42-4.51a20.998 20.998 0 013.52-4.07 16.046 16.046 0 014.4-2.97 11.403 11.403 0 015.17-1.21c3.227 0 5.683.953 7.37 2.86 1.76 1.833 2.64 3.96 2.64 6.38 0 1.98-.623 3.63-1.87 4.95-1.247 1.32-2.897 1.98-4.95 1.98-1.907 0-3.52-.55-4.84-1.65-1.32-1.173-1.98-2.713-1.98-4.62 0-1.54.367-2.75 1.1-3.63.733-.953 1.723-1.723 2.97-2.31zm72.53 55.88c-3.08 0-5.94-.587-8.58-1.76-2.64-1.247-4.95-3.08-6.93-5.5-1.907-2.42-3.41-5.463-4.51-9.13-1.1-3.667-1.65-7.993-1.65-12.98 0-5.28.623-9.827 1.87-13.64 1.246-3.887 2.97-7.04 5.17-9.46 2.2-2.493 4.766-4.327 7.7-5.5a24.455 24.455 0 019.46-1.87c5.94 0 10.413 1.87 13.42 5.61V13.96c0-3.3-.55-5.72-1.65-7.26-1.1-1.613-3.19-2.42-6.27-2.42V1.97c2.273.22 4.546.33 6.82.33 2.493 0 4.84-.11 7.04-.33 2.2-.22 4.253-.623 6.16-1.21v74.25c0 3.3.55 5.757 1.65 7.37 1.1 1.54 3.153 2.31 6.16 2.31V87c-2.347-.22-4.62-.33-6.82-.33-2.494 0-4.84.11-7.04.33-2.2.22-4.217.623-6.05 1.21V77.32c-1.467 3.667-3.63 6.453-6.49 8.36-2.787 1.907-5.94 2.86-9.46 2.86zm4.4-3.85c2.493 0 4.803-.953 6.93-2.86 2.2-1.98 3.74-4.95 4.62-8.91V37.28c-1.32-1.98-3.007-3.447-5.06-4.4-1.98-.953-4.18-1.43-6.6-1.43-4.18 0-7.444 2.237-9.79 6.71-2.274 4.4-3.374 11.22-3.3 20.46-.074 9.167 1.026 15.803 3.3 19.91 2.346 4.107 5.646 6.16 9.9 6.16zM29.33 187.31c-1.76 3.373-4.143 5.793-7.15 7.26-2.933 1.467-5.94 2.2-9.02 2.2-3.667 0-6.783-1.027-9.35-3.08-2.493-2.053-3.74-5.207-3.74-9.46 0-2.053.33-3.887.99-5.5.66-1.613 1.65-3.043 2.97-4.29 1.32-1.32 2.933-2.493 4.84-3.52 1.907-1.1 4.143-2.2 6.71-3.3 1.98-.807 3.813-1.54 5.5-2.2 1.687-.733 3.117-1.467 4.29-2.2 1.247-.733 2.2-1.503 2.86-2.31.733-.807 1.1-1.76 1.1-2.86v-7.48c0-3.96-.843-6.71-2.53-8.25-1.613-1.613-3.85-2.42-6.71-2.42-1.467 0-3.117.257-4.95.77-1.833.44-3.337 1.357-4.51 2.75 1.613.367 2.86 1.137 3.74 2.31.953 1.1 1.43 2.53 1.43 4.29 0 1.98-.697 3.593-2.09 4.84-1.32 1.173-2.97 1.76-4.95 1.76-1.907 0-3.483-.623-4.73-1.87-1.173-1.247-1.76-2.823-1.76-4.73 0-1.687.477-3.263 1.43-4.73 1.027-1.467 2.383-2.713 4.07-3.74 1.687-1.027 3.777-1.907 6.27-2.64 2.567-.807 5.647-1.21 9.24-1.21 3.3 0 6.197.44 8.69 1.32 2.567.807 4.657 2.273 6.27 4.4 1.247 1.687 2.053 3.703 2.42 6.05.44 2.273.66 5.317.66 9.13v29.15c0 2.053.183 3.52.55 4.4.367.807 1.027 1.21 1.98 1.21 1.027 0 1.98-.257 2.86-.77a34.576 34.576 0 002.42-1.76l1.1 1.87c-1.613 1.247-3.227 2.237-4.84 2.97-1.613.733-3.667 1.1-6.16 1.1-1.98 0-3.593-.257-4.84-.77-1.247-.513-2.273-1.21-3.08-2.09a7.677 7.677 0 01-1.54-2.97 14.908 14.908 0 01-.44-3.63zm-9.9 4.07c1.833 0 3.557-.513 5.17-1.54 1.687-1.027 3.263-2.823 4.73-5.39v-21.89c-.66.807-1.943 1.797-3.85 2.97-1.833 1.1-3.63 2.127-5.39 3.08-5.5 2.787-8.25 7.333-8.25 13.64 0 3.153.697 5.463 2.09 6.93 1.467 1.467 3.3 2.2 5.5 2.2zm58.083-5.61c0 3.08.586 5.17 1.76 6.27 1.246 1.1 3.3 1.65 6.16 1.65V196c-1.32-.073-3.3-.147-5.94-.22-2.64-.147-5.28-.22-7.92-.22-2.64 0-5.317.073-8.03.22-2.64.073-4.62.147-5.94.22v-2.31c2.86 0 4.876-.55 6.05-1.65 1.173-1.1 1.76-3.19 1.76-6.27v-62.81c0-3.3-.55-5.72-1.65-7.26-1.1-1.613-3.154-2.42-6.16-2.42v-2.31c2.273.22 4.546.33 6.82.33 2.493 0 4.84-.11 7.04-.33 2.2-.22 4.216-.623 6.05-1.21v76.01zm56.326-32.23l-14.74 42.9c-.366-.073-.99-.11-1.87-.11-.88 0-1.503.037-1.87.11l-17.82-48.73c-.586-1.467-1.173-2.603-1.76-3.41-.586-.807-1.173-1.393-1.76-1.76-.513-.44-1.026-.697-1.54-.77-.513-.147-.953-.22-1.32-.22v-2.31c1.76.22 3.594.403 5.5.55 1.907.073 4.034.11 6.38.11 2.274 0 4.657-.073 7.15-.22 2.567-.147 4.95-.293 7.15-.44v2.31c-1.32 0-2.566.037-3.74.11-1.1 0-2.016.147-2.75.44-.733.22-1.246.623-1.54 1.21-.293.587-.256 1.393.11 2.42l11.99 35.75 14.85-42.57h.11l.33.11h2.2c.954 0 1.614-.037 1.98-.11l15.51 43.01 11.88-36.08c.294-1.1.33-1.907.11-2.42-.22-.587-.696-1.027-1.43-1.32-.733-.293-1.65-.44-2.75-.44-1.026-.073-2.2-.11-3.52-.11v-2.31a93.63 93.63 0 004.84.33c1.687.073 3.19.11 4.51.11 2.714 0 4.804-.147 6.27-.44v2.31c-.366 0-.806.037-1.32.11-.513.073-1.063.33-1.65.77-.586.367-1.173.99-1.76 1.87-.513.807-1.026 1.943-1.54 3.41l-16.17 48.73c-.366-.073-1.026-.11-1.98-.11-.88 0-1.503.037-1.87.11l-16.17-42.9zm79.921 33.77c-1.76 3.373-4.143 5.793-7.15 7.26-2.933 1.467-5.94 2.2-9.02 2.2-3.666 0-6.783-1.027-9.35-3.08-2.493-2.053-3.74-5.207-3.74-9.46 0-2.053.33-3.887.99-5.5.66-1.613 1.65-3.043 2.97-4.29 1.32-1.32 2.934-2.493 4.84-3.52 1.907-1.1 4.144-2.2 6.71-3.3 1.98-.807 3.814-1.54 5.5-2.2 1.687-.733 3.117-1.467 4.29-2.2 1.247-.733 2.2-1.503 2.86-2.31.734-.807 1.1-1.76 1.1-2.86v-7.48c0-3.96-.843-6.71-2.53-8.25-1.613-1.613-3.85-2.42-6.71-2.42-1.466 0-3.116.257-4.95.77-1.833.44-3.336 1.357-4.51 2.75 1.614.367 2.86 1.137 3.74 2.31.954 1.1 1.43 2.53 1.43 4.29 0 1.98-.696 3.593-2.09 4.84-1.32 1.173-2.97 1.76-4.95 1.76-1.906 0-3.483-.623-4.73-1.87-1.173-1.247-1.76-2.823-1.76-4.73 0-1.687.477-3.263 1.43-4.73 1.027-1.467 2.384-2.713 4.07-3.74 1.687-1.027 3.777-1.907 6.27-2.64 2.567-.807 5.647-1.21 9.24-1.21 3.3 0 6.197.44 8.69 1.32 2.567.807 4.657 2.273 6.27 4.4 1.247 1.687 2.054 3.703 2.42 6.05.44 2.273.66 5.317.66 9.13v29.15c0 2.053.184 3.52.55 4.4.367.807 1.027 1.21 1.98 1.21a5.58 5.58 0 002.86-.77 34.506 34.506 0 002.42-1.76l1.1 1.87c-1.613 1.247-3.226 2.237-4.84 2.97-1.613.733-3.666 1.1-6.16 1.1-1.98 0-3.593-.257-4.84-.77-1.246-.513-2.273-1.21-3.08-2.09a7.69 7.69 0 01-1.54-2.97 14.923 14.923 0 01-.44-3.63zm-9.9 4.07c1.834 0 3.557-.513 5.17-1.54 1.687-1.027 3.264-2.823 4.73-5.39v-21.89c-.66.807-1.943 1.797-3.85 2.97-1.833 1.1-3.63 2.127-5.39 3.08-5.5 2.787-8.25 7.333-8.25 13.64 0 3.153.697 5.463 2.09 6.93 1.467 1.467 3.3 2.2 5.5 2.2zm49.539 23.1c2.053 0 3.887-.66 5.5-1.98 1.613-1.32 2.97-3.52 4.07-6.6l3.08-8.36-21.12-49.83c-.66-1.393-1.357-2.493-2.09-3.3-.66-.88-1.32-1.503-1.98-1.87-.587-.44-1.173-.697-1.76-.77a5.213 5.213 0 00-1.43-.22v-2.31c3.74.44 7.993.66 12.76.66 2.273 0 4.657-.073 7.15-.22 2.567-.147 4.95-.293 7.15-.44v2.31c-1.32 0-2.567.037-3.74.11-1.1 0-2.053.147-2.86.44-.733.22-1.247.623-1.54 1.21-.293.587-.22 1.393.22 2.42l14.96 36.74 13.42-36.08c.367-1.1.44-1.943.22-2.53-.22-.66-.697-1.137-1.43-1.43-.66-.367-1.54-.587-2.64-.66-1.1-.147-2.31-.22-3.63-.22v-2.31c1.54.147 3.153.257 4.84.33 1.687.073 3.19.11 4.51.11 2.713 0 4.803-.147 6.27-.44v2.31c-.367 0-.807.037-1.32.11-.513.073-1.063.33-1.65.77-.513.367-1.063.99-1.65 1.87-.587.807-1.137 1.943-1.65 3.41l-17.82 48.07-3.96 10.34c-1.393 3.593-2.97 6.16-4.73 7.7-1.173 1.027-2.567 1.76-4.18 2.2-1.54.44-3.153.66-4.84.66-2.273 0-4.363-.623-6.27-1.87-1.833-1.173-2.75-3.007-2.75-5.5 0-1.98.587-3.557 1.76-4.73 1.247-1.173 2.933-1.76 5.06-1.76 1.907 0 3.483.477 4.73 1.43 1.247 1.027 1.87 2.493 1.87 4.4 0 1.393-.367 2.567-1.1 3.52a7.324 7.324 0 01-2.75 2.2c.147.073.33.11.55.11h.77z"/><path fill="#212121" d="M312.125 58.73c0-5.353.66-9.937 1.98-13.75 1.32-3.813 3.116-6.93 5.39-9.35 2.346-2.42 5.06-4.18 8.14-5.28 3.153-1.1 6.563-1.65 10.23-1.65 3.666 0 7.04.55 10.12 1.65a20.085 20.085 0 018.14 5.28c2.346 2.42 4.18 5.537 5.5 9.35 1.32 3.813 1.98 8.397 1.98 13.75s-.66 9.937-1.98 13.75c-1.32 3.74-3.154 6.82-5.5 9.24-2.274 2.347-4.987 4.07-8.14 5.17-3.08 1.1-6.454 1.65-10.12 1.65-3.667 0-7.077-.55-10.23-1.65-3.08-1.1-5.794-2.823-8.14-5.17-2.274-2.42-4.07-5.5-5.39-9.24-1.32-3.813-1.98-8.397-1.98-13.75zm12.87 0c0 4.913.293 9.13.88 12.65.66 3.447 1.576 6.307 2.75 8.58 1.173 2.2 2.53 3.813 4.07 4.84 1.54 1.027 3.263 1.54 5.17 1.54 1.833 0 3.52-.513 5.06-1.54 1.613-1.027 3.006-2.64 4.18-4.84 1.173-2.273 2.053-5.133 2.64-8.58.66-3.52.99-7.737.99-12.65 0-9.827-1.21-16.903-3.63-21.23-2.42-4.4-5.5-6.6-9.24-6.6s-6.82 2.2-9.24 6.6c-2.42 4.327-3.63 11.403-3.63 21.23zm52.438 0c0-5.353.66-9.937 1.98-13.75 1.32-3.813 3.116-6.93 5.39-9.35 2.346-2.42 5.06-4.18 8.14-5.28 3.153-1.1 6.563-1.65 10.23-1.65 3.666 0 7.04.55 10.12 1.65a20.085 20.085 0 018.14 5.28c2.346 2.42 4.18 5.537 5.5 9.35 1.32 3.813 1.98 8.397 1.98 13.75s-.66 9.937-1.98 13.75c-1.32 3.74-3.154 6.82-5.5 9.24-2.274 2.347-4.987 4.07-8.14 5.17-3.08 1.1-6.454 1.65-10.12 1.65-3.667 0-7.077-.55-10.23-1.65-3.08-1.1-5.794-2.823-8.14-5.17-2.274-2.42-4.07-5.5-5.39-9.24-1.32-3.813-1.98-8.397-1.98-13.75zm12.87 0c0 4.913.293 9.13.88 12.65.66 3.447 1.576 6.307 2.75 8.58 1.173 2.2 2.53 3.813 4.07 4.84 1.54 1.027 3.263 1.54 5.17 1.54 1.833 0 3.52-.513 5.06-1.54 1.613-1.027 3.006-2.64 4.18-4.84 1.173-2.273 2.053-5.133 2.64-8.58.66-3.52.99-7.737.99-12.65 0-9.827-1.21-16.903-3.63-21.23-2.42-4.4-5.5-6.6-9.24-6.6s-6.82 2.2-9.24 6.6c-2.42 4.327-3.63 11.403-3.63 21.23zm86.328-26.07c-.733-.66-1.613-.917-2.64-.77-1.98.073-3.813.733-5.5 1.98-1.613 1.247-3.006 2.787-4.18 4.62a22.437 22.437 0 00-2.75 5.83c-.586 2.127-.88 4.107-.88 5.94v25.41c0 3.593.954 6.013 2.86 7.26 1.907 1.173 4.657 1.76 8.25 1.76V87a386.422 386.422 0 00-7.26-.22c-3.08-.147-6.343-.22-9.79-.22-2.713 0-5.39.073-8.03.22-2.64.073-4.656.147-6.05.22v-2.31c2.86 0 4.877-.55 6.05-1.65 1.247-1.1 1.87-3.19 1.87-6.27V42.23c0-3.3-.55-5.72-1.65-7.26-1.1-1.613-3.19-2.42-6.27-2.42v-2.31c2.274.22 4.547.33 6.82.33 2.567 0 4.914-.11 7.04-.33 2.2-.22 4.254-.623 6.16-1.21v12.43c.587-1.54 1.394-3.043 2.42-4.51a20.998 20.998 0 013.52-4.07 16.046 16.046 0 014.4-2.97 11.406 11.406 0 015.17-1.21c3.227 0 5.684.953 7.37 2.86 1.76 1.833 2.64 3.96 2.64 6.38 0 1.98-.623 3.63-1.87 4.95-1.246 1.32-2.896 1.98-4.95 1.98-1.906 0-3.52-.55-4.84-1.65-1.32-1.173-1.98-2.713-1.98-4.62 0-1.54.367-2.75 1.1-3.63.734-.953 1.724-1.723 2.97-2.31zm31.361 54.12a80.37 80.37 0 01-2.53-1.32 37.02 37.02 0 00-2.2-1.43c-.733-.513-1.393-.44-1.98.22-.586.66-1.026 1.833-1.32 3.52h-2.42c.147-2.347.257-5.207.33-8.58.074-3.373.11-7.847.11-13.42h2.42c.367 3.08.88 5.867 1.54 8.36.66 2.493 1.54 4.657 2.64 6.49 1.174 1.76 2.64 3.153 4.4 4.18 1.834.953 4.034 1.43 6.6 1.43 1.027 0 2.054-.147 3.08-.44a9.085 9.085 0 002.97-1.65c.88-.807 1.577-1.797 2.09-2.97.587-1.173.88-2.64.88-4.4 0-1.613-.293-3.043-.88-4.29-.586-1.32-1.43-2.53-2.53-3.63-1.026-1.173-2.273-2.273-3.74-3.3-1.466-1.1-3.08-2.237-4.84-3.41a634.377 634.377 0 01-5.5-3.85 37.75 37.75 0 01-4.73-4.18 19.103 19.103 0 01-3.19-4.84c-.806-1.76-1.21-3.777-1.21-6.05 0-2.42.44-4.547 1.32-6.38.954-1.833 2.237-3.337 3.85-4.51 1.614-1.247 3.447-2.163 5.5-2.75 2.054-.587 4.254-.88 6.6-.88 3.007 0 5.574.44 7.7 1.32 2.127.88 3.704 1.723 4.73 2.53 2.42 1.833 3.887.587 4.4-3.74h2.53a178.31 178.31 0 00-.33 7.48c-.073 2.787-.11 6.6-.11 11.44h-2.53a34.513 34.513 0 00-1.43-6.05 19.658 19.658 0 00-2.75-5.39c-1.1-1.613-2.53-2.897-4.29-3.85-1.686-1.027-3.74-1.54-6.16-1.54s-4.436.697-6.05 2.09c-1.613 1.393-2.42 3.373-2.42 5.94 0 1.687.367 3.19 1.1 4.51.807 1.247 1.834 2.42 3.08 3.52 1.32 1.1 2.824 2.2 4.51 3.3 1.687 1.1 3.41 2.237 5.17 3.41a84.954 84.954 0 015.61 4.07c1.76 1.32 3.3 2.713 4.62 4.18a16.5 16.5 0 013.08 4.95c.734 1.76 1.1 3.74 1.1 5.94 0 2.567-.55 4.84-1.65 6.82a14.694 14.694 0 01-4.18 4.84c-1.76 1.32-3.85 2.31-6.27 2.97-2.346.733-4.84 1.1-7.48 1.1-3.446 0-6.526-.587-9.24-1.76zm101.91-8.47c-1.76 3.373-4.143 5.793-7.15 7.26-2.933 1.467-5.94 2.2-9.02 2.2-3.666 0-6.783-1.027-9.35-3.08-2.493-2.053-3.74-5.207-3.74-9.46 0-2.053.33-3.887.99-5.5.66-1.613 1.65-3.043 2.97-4.29 1.32-1.32 2.934-2.493 4.84-3.52 1.907-1.1 4.144-2.2 6.71-3.3 1.98-.807 3.814-1.54 5.5-2.2 1.687-.733 3.117-1.467 4.29-2.2 1.247-.733 2.2-1.503 2.86-2.31.734-.807 1.1-1.76 1.1-2.86v-7.48c0-3.96-.843-6.71-2.53-8.25-1.613-1.613-3.85-2.42-6.71-2.42-1.466 0-3.116.257-4.95.77-1.833.44-3.336 1.357-4.51 2.75 1.614.367 2.86 1.137 3.74 2.31.954 1.1 1.43 2.53 1.43 4.29 0 1.98-.696 3.593-2.09 4.84-1.32 1.173-2.97 1.76-4.95 1.76-1.906 0-3.483-.623-4.73-1.87-1.173-1.247-1.76-2.823-1.76-4.73 0-1.687.477-3.263 1.43-4.73 1.027-1.467 2.384-2.713 4.07-3.74 1.687-1.027 3.777-1.907 6.27-2.64 2.567-.807 5.647-1.21 9.24-1.21 3.3 0 6.197.44 8.69 1.32 2.567.807 4.657 2.273 6.27 4.4 1.247 1.687 2.054 3.703 2.42 6.05.44 2.273.66 5.317.66 9.13v29.15c0 2.053.184 3.52.55 4.4.367.807 1.027 1.21 1.98 1.21 1.027 0 1.98-.257 2.86-.77a34.506 34.506 0 002.42-1.76l1.1 1.87c-1.613 1.247-3.226 2.237-4.84 2.97-1.613.733-3.666 1.1-6.16 1.1-1.98 0-3.593-.257-4.84-.77-1.246-.513-2.273-1.21-3.08-2.09a7.69 7.69 0 01-1.54-2.97 14.926 14.926 0 01-.44-3.63zm-9.9 4.07c1.834 0 3.557-.513 5.17-1.54 1.687-1.027 3.264-2.823 4.73-5.39V53.56c-.66.807-1.943 1.797-3.85 2.97-1.833 1.1-3.63 2.127-5.39 3.08-5.5 2.787-8.25 7.333-8.25 13.64 0 3.153.697 5.463 2.09 6.93 1.467 1.467 3.3 2.2 5.5 2.2zm74.913-49.72c-.733-.66-1.613-.917-2.64-.77-1.98.073-3.813.733-5.5 1.98-1.613 1.247-3.007 2.787-4.18 4.62a22.437 22.437 0 00-2.75 5.83c-.587 2.127-.88 4.107-.88 5.94v25.41c0 3.593.953 6.013 2.86 7.26 1.907 1.173 4.657 1.76 8.25 1.76V87a386.974 386.974 0 00-7.26-.22c-3.08-.147-6.343-.22-9.79-.22-2.713 0-5.39.073-8.03.22-2.64.073-4.657.147-6.05.22v-2.31c2.86 0 4.877-.55 6.05-1.65 1.247-1.1 1.87-3.19 1.87-6.27V42.23c0-3.3-.55-5.72-1.65-7.26-1.1-1.613-3.19-2.42-6.27-2.42v-2.31c2.273.22 4.547.33 6.82.33 2.567 0 4.913-.11 7.04-.33 2.2-.22 4.253-.623 6.16-1.21v12.43c.587-1.54 1.393-3.043 2.42-4.51a20.998 20.998 0 013.52-4.07 16.046 16.046 0 014.4-2.97 11.403 11.403 0 015.17-1.21c3.227 0 5.683.953 7.37 2.86 1.76 1.833 2.64 3.96 2.64 6.38 0 1.98-.623 3.63-1.87 4.95-1.247 1.32-2.897 1.98-4.95 1.98-1.907 0-3.52-.55-4.84-1.65-1.32-1.173-1.98-2.713-1.98-4.62 0-1.54.367-2.75 1.1-3.63.733-.953 1.723-1.723 2.97-2.31zm44.901 55.88c-3.886 0-7.406-.66-10.56-1.98-3.153-1.32-5.83-3.19-8.03-5.61-2.2-2.493-3.886-5.5-5.06-9.02-1.173-3.593-1.76-7.663-1.76-12.21 0-4.913.624-9.277 1.87-13.09 1.247-3.887 2.97-7.15 5.17-9.79 2.274-2.64 4.987-4.657 8.14-6.05 3.154-1.393 6.637-2.09 10.45-2.09 6.454 0 11.514 1.943 15.18 5.83 3.667 3.887 5.5 10.047 5.5 18.48h-33.11c-.146.953-.256 1.98-.33 3.08v3.3c0 3.813.44 7.15 1.32 10.01.954 2.86 2.164 5.243 3.63 7.15 1.54 1.907 3.264 3.337 5.17 4.29 1.907.953 3.85 1.43 5.83 1.43 2.934 0 5.72-.697 8.36-2.09 2.714-1.467 5.097-4.143 7.15-8.03l2.2.77c-.66 1.907-1.613 3.813-2.86 5.72-1.173 1.833-2.64 3.483-4.4 4.95-1.76 1.467-3.813 2.64-6.16 3.52-2.273.953-4.84 1.43-7.7 1.43zm-.22-57.64c-3.006 0-5.683 1.613-8.03 4.84-2.273 3.153-3.703 8.213-4.29 15.18h21.67c.074-2.713-.073-5.28-.44-7.7-.366-2.42-.953-4.547-1.76-6.38-.733-1.833-1.723-3.263-2.97-4.29-1.173-1.1-2.566-1.65-4.18-1.65zM313.787 195.78c-.88-.44-1.724-.88-2.53-1.32a37.839 37.839 0 00-2.2-1.43c-.734-.513-1.394-.44-1.98.22-.587.66-1.027 1.833-1.32 3.52h-2.42c.146-2.347.256-5.207.33-8.58.073-3.373.11-7.847.11-13.42h2.42c.366 3.08.88 5.867 1.54 8.36.66 2.493 1.54 4.657 2.64 6.49 1.173 1.76 2.64 3.153 4.4 4.18 1.833.953 4.033 1.43 6.6 1.43 1.026 0 2.053-.147 3.08-.44a9.096 9.096 0 002.97-1.65c.88-.807 1.576-1.797 2.09-2.97.586-1.173.88-2.64.88-4.4 0-1.613-.294-3.043-.88-4.29-.587-1.32-1.43-2.53-2.53-3.63-1.027-1.173-2.274-2.273-3.74-3.3-1.467-1.1-3.08-2.237-4.84-3.41a613.159 613.159 0 01-5.5-3.85 37.656 37.656 0 01-4.73-4.18 19.081 19.081 0 01-3.19-4.84c-.807-1.76-1.21-3.777-1.21-6.05 0-2.42.44-4.547 1.32-6.38.953-1.833 2.236-3.337 3.85-4.51 1.613-1.247 3.446-2.163 5.5-2.75 2.053-.587 4.253-.88 6.6-.88 3.006 0 5.573.44 7.7 1.32 2.126.88 3.703 1.723 4.73 2.53 2.42 1.833 3.886.587 4.4-3.74h2.53a174.98 174.98 0 00-.33 7.48c-.074 2.787-.11 6.6-.11 11.44h-2.53a34.61 34.61 0 00-1.43-6.05 19.681 19.681 0 00-2.75-5.39c-1.1-1.613-2.53-2.897-4.29-3.85-1.687-1.027-3.74-1.54-6.16-1.54s-4.437.697-6.05 2.09c-1.614 1.393-2.42 3.373-2.42 5.94 0 1.687.366 3.19 1.1 4.51.806 1.247 1.833 2.42 3.08 3.52a48 48 0 004.51 3.3c1.686 1.1 3.41 2.237 5.17 3.41a85.063 85.063 0 015.61 4.07c1.76 1.32 3.3 2.713 4.62 4.18a16.528 16.528 0 013.08 4.95c.733 1.76 1.1 3.74 1.1 5.94 0 2.567-.55 4.84-1.65 6.82a14.703 14.703 0 01-4.18 4.84c-1.76 1.32-3.85 2.31-6.27 2.97-2.347.733-4.84 1.1-7.48 1.1-3.447 0-6.527-.587-9.24-1.76zm73.309-28.05c0-5.353.66-9.937 1.98-13.75 1.32-3.813 3.117-6.93 5.39-9.35 2.347-2.42 5.06-4.18 8.14-5.28 3.154-1.1 6.564-1.65 10.23-1.65 3.667 0 7.04.55 10.12 1.65a20.072 20.072 0 018.14 5.28c2.347 2.42 4.18 5.537 5.5 9.35 1.32 3.813 1.98 8.397 1.98 13.75s-.66 9.937-1.98 13.75c-1.32 3.74-3.153 6.82-5.5 9.24-2.273 2.347-4.986 4.07-8.14 5.17-3.08 1.1-6.453 1.65-10.12 1.65-3.666 0-7.076-.55-10.23-1.65-3.08-1.1-5.793-2.823-8.14-5.17-2.273-2.42-4.07-5.5-5.39-9.24-1.32-3.813-1.98-8.397-1.98-13.75zm12.87 0c0 4.913.294 9.13.88 12.65.66 3.447 1.577 6.307 2.75 8.58 1.174 2.2 2.53 3.813 4.07 4.84 1.54 1.027 3.264 1.54 5.17 1.54a8.93 8.93 0 005.06-1.54c1.614-1.027 3.007-2.64 4.18-4.84 1.174-2.273 2.054-5.133 2.64-8.58.66-3.52.99-7.737.99-12.65 0-9.827-1.21-16.903-3.63-21.23-2.42-4.4-5.5-6.6-9.24-6.6s-6.82 2.2-9.24 6.6c-2.42 4.327-3.63 11.403-3.63 21.23zm57.402-16.5c0-3.3-.55-5.72-1.65-7.26-1.1-1.613-3.19-2.42-6.27-2.42v-2.31c2.273.22 4.546.33 6.82.33 2.493 0 4.84-.11 7.04-.33 2.2-.22 4.216-.623 6.05-1.21v11.55c1.54-3.813 3.813-6.747 6.82-8.8 3.08-2.053 6.563-3.08 10.45-3.08 2.86 0 5.536.587 8.03 1.76 2.493 1.1 4.656 2.823 6.49 5.17 1.833 2.273 3.263 5.17 4.29 8.69 1.026 3.447 1.54 7.48 1.54 12.1 0 4.4-.514 8.543-1.54 12.43-1.027 3.887-2.604 7.297-4.73 10.23-2.127 2.86-4.804 5.17-8.03 6.93-3.227 1.687-7.077 2.53-11.55 2.53-2.42 0-4.62-.33-6.6-.99-1.98-.66-3.704-1.503-5.17-2.53v11.44c0 3.227.916 5.39 2.75 6.49 1.833 1.1 4.363 1.65 7.59 1.65v2.31c-1.687-.073-4.07-.183-7.15-.33-3.007-.073-6.234-.11-9.68-.11-2.42 0-4.804.037-7.15.11-2.347.147-4.144.257-5.39.33v-2.31c2.566 0 4.363-.477 5.39-1.43 1.1-.953 1.65-2.823 1.65-5.61v-55.33zm21.67 43.56c2.933 0 5.353-.66 7.26-1.98 1.906-1.393 3.446-3.3 4.62-5.72 1.173-2.493 1.98-5.5 2.42-9.02.513-3.593.77-7.59.77-11.99 0-8.653-1.027-14.887-3.08-18.7-1.98-3.887-4.914-5.83-8.8-5.83-2.787 0-5.39 1.063-7.81 3.19s-4.107 5.28-5.06 9.46v37.18c1.32 1.247 2.823 2.127 4.51 2.64 1.76.513 3.483.77 5.17.77zm67.197 2.75c-3.886 0-7.406-.66-10.56-1.98-3.153-1.32-5.83-3.19-8.03-5.61-2.2-2.493-3.886-5.5-5.06-9.02-1.173-3.593-1.76-7.663-1.76-12.21 0-4.913.624-9.277 1.87-13.09 1.247-3.887 2.97-7.15 5.17-9.79 2.274-2.64 4.987-4.657 8.14-6.05 3.154-1.393 6.637-2.09 10.45-2.09 6.454 0 11.514 1.943 15.18 5.83 3.667 3.887 5.5 10.047 5.5 18.48h-33.11c-.146.953-.256 1.98-.33 3.08v3.3c0 3.813.44 7.15 1.32 10.01.954 2.86 2.164 5.243 3.63 7.15 1.54 1.907 3.264 3.337 5.17 4.29 1.907.953 3.85 1.43 5.83 1.43 2.934 0 5.72-.697 8.36-2.09 2.714-1.467 5.097-4.143 7.15-8.03l2.2.77c-.66 1.907-1.613 3.813-2.86 5.72-1.173 1.833-2.64 3.483-4.4 4.95-1.76 1.467-3.813 2.64-6.16 3.52-2.273.953-4.84 1.43-7.7 1.43zm-.22-57.64c-3.006 0-5.683 1.613-8.03 4.84-2.273 3.153-3.703 8.213-4.29 15.18h21.67c.074-2.713-.073-5.28-.44-7.7-.366-2.42-.953-4.547-1.76-6.38-.733-1.833-1.723-3.263-2.97-4.29-1.173-1.1-2.566-1.65-4.18-1.65zm71.598-2.2c3.006 0 5.426.403 7.26 1.21 1.833.733 3.373 1.76 4.62 3.08 1.32 1.467 2.273 3.3 2.86 5.5.586 2.127.88 5.06.88 8.8v29.48c0 3.08.586 5.17 1.76 6.27 1.173 1.1 3.19 1.65 6.05 1.65V196c-1.32-.073-3.3-.147-5.94-.22-2.567-.147-5.134-.22-7.7-.22-2.567 0-5.097.073-7.59.22-2.42.073-4.254.147-5.5.22v-2.31c2.493 0 4.253-.55 5.28-1.65 1.026-1.1 1.54-3.19 1.54-6.27V153.1c0-1.613-.11-3.08-.33-4.4-.147-1.393-.514-2.603-1.1-3.63-.587-1.027-1.43-1.833-2.53-2.42-1.027-.587-2.42-.88-4.18-.88-2.054 0-3.924.44-5.61 1.32-1.687.88-3.154 2.127-4.4 3.74-1.174 1.54-2.09 3.373-2.75 5.5-.66 2.053-.99 4.29-.99 6.71v26.73c0 3.08.476 5.17 1.43 6.27 1.026 1.1 2.786 1.65 5.28 1.65V196a211.39 211.39 0 00-5.39-.22c-2.347-.147-4.804-.22-7.37-.22-1.32 0-2.677.037-4.07.11-1.32 0-2.604.037-3.85.11-1.247 0-2.42.037-3.52.11a37.07 37.07 0 01-2.53.11v-2.31c2.86 0 4.876-.55 6.05-1.65 1.246-1.1 1.87-3.19 1.87-6.27v-34.54c0-3.3-.55-5.72-1.65-7.26-1.1-1.613-3.19-2.42-6.27-2.42v-2.31c2.273.22 4.546.33 6.82.33 2.566 0 4.913-.11 7.04-.33 2.2-.22 4.253-.623 6.16-1.21v11.88c1.906-4.547 4.473-7.7 7.7-9.46 3.3-1.833 6.856-2.75 10.67-2.75zm73.664 36.74a179.308 179.308 0 00-.99-16.72c-.586-5.5-1.21-10.707-1.87-15.62-.66-4.913-1.283-9.423-1.87-13.53-.513-4.18-.77-7.773-.77-10.78 0-2.64.587-4.583 1.76-5.83 1.247-1.32 2.824-1.98 4.73-1.98 1.76 0 3.264.66 4.51 1.98 1.32 1.247 1.98 3.19 1.98 5.83 0 3.007-.293 6.6-.88 10.78-.513 4.107-1.1 8.617-1.76 13.53a579.477 579.477 0 00-1.87 15.62c-.586 5.5-.916 11.073-.99 16.72h-1.98zm-6.93 15.51c0-2.2.734-3.997 2.2-5.39 1.467-1.467 3.374-2.2 5.72-2.2 2.274 0 4.144.733 5.61 2.2 1.467 1.393 2.2 3.19 2.2 5.39 0 2.2-.733 4.033-2.2 5.5-1.466 1.393-3.336 2.09-5.61 2.09-2.346 0-4.253-.697-5.72-2.09-1.466-1.467-2.2-3.3-2.2-5.5z"/></svg>